<mxfile host="app.diagrams.net" modified="2023-09-20T18:31:25.452Z" agent="Mozilla/5.0 (X11; Linux x86_64) AppleWebKit/537.36 (KHTML, like Gecko) Chrome/117.0.0.0 Safari/537.36" etag="mU6IRupmEaxuxnujNZla" version="21.7.5" type="github">
  <diagram name="Page-1" id="HkeKC2RD16-9pxQuGfAg">
    <mxGraphModel dx="1760" dy="2018" grid="1" gridSize="10" guides="1" tooltips="1" connect="1" arrows="1" fold="1" page="1" pageScale="1" pageWidth="850" pageHeight="1100" background="none" math="0" shadow="0">
      <root>
        <mxCell id="0" />
        <mxCell id="1" parent="0" />
        <mxCell id="OhlYMunK3s7UU5Id4ylo-1" value="" style="sketch=0;points=[[0,0,0],[0.25,0,0],[0.5,0,0],[0.75,0,0],[1,0,0],[0,1,0],[0.25,1,0],[0.5,1,0],[0.75,1,0],[1,1,0],[0,0.25,0],[0,0.5,0],[0,0.75,0],[1,0.25,0],[1,0.5,0],[1,0.75,0]];outlineConnect=0;fontColor=#232F3E;fillColor=#8C4FFF;strokeColor=#ffffff;dashed=0;verticalLabelPosition=bottom;verticalAlign=top;align=center;html=1;fontSize=12;fontStyle=0;aspect=fixed;shape=mxgraph.aws4.resourceIcon;resIcon=mxgraph.aws4.managed_streaming_for_kafka;" parent="1" vertex="1">
          <mxGeometry x="787" y="385.5" width="78" height="78" as="geometry" />
        </mxCell>
        <mxCell id="OhlYMunK3s7UU5Id4ylo-2" value="" style="html=1;verticalLabelPosition=bottom;align=center;labelBackgroundColor=#ffffff;verticalAlign=top;strokeWidth=2;strokeColor=#0080F0;shadow=0;dashed=0;shape=mxgraph.ios7.icons.smartphone;" parent="1" vertex="1">
          <mxGeometry x="310" y="390" width="35.4" height="59" as="geometry" />
        </mxCell>
        <mxCell id="OhlYMunK3s7UU5Id4ylo-3" value="Services" style="html=1;whiteSpace=wrap;strokeColor=none;fillColor=#0079D6;labelPosition=center;verticalLabelPosition=middle;verticalAlign=top;align=center;fontSize=12;outlineConnect=0;spacingTop=-6;fontColor=#FFFFFF;sketch=0;shape=mxgraph.sitemap.services;" parent="1" vertex="1">
          <mxGeometry x="510" y="389.5" width="120" height="70" as="geometry" />
        </mxCell>
        <mxCell id="OhlYMunK3s7UU5Id4ylo-4" value="" style="shape=waypoint;sketch=0;size=6;pointerEvents=1;points=[];fillColor=default;resizable=0;rotatable=0;perimeter=centerPerimeter;snapToPoint=1;verticalAlign=top;strokeColor=#0080F0;labelBackgroundColor=#ffffff;strokeWidth=2;shadow=0;dashed=0;" parent="1" vertex="1">
          <mxGeometry x="500" y="409.5" width="20" height="20" as="geometry" />
        </mxCell>
        <mxCell id="OhlYMunK3s7UU5Id4ylo-8" value="" style="html=1;verticalLabelPosition=bottom;align=center;labelBackgroundColor=#ffffff;verticalAlign=top;strokeWidth=2;strokeColor=#0080F0;shadow=0;dashed=0;shape=mxgraph.ios7.icons.smartphone;" parent="1" vertex="1">
          <mxGeometry x="310" y="500.5" width="35.4" height="59" as="geometry" />
        </mxCell>
        <mxCell id="OhlYMunK3s7UU5Id4ylo-9" value="" style="html=1;verticalLabelPosition=bottom;align=center;labelBackgroundColor=#ffffff;verticalAlign=top;strokeWidth=2;strokeColor=#0080F0;shadow=0;dashed=0;shape=mxgraph.ios7.icons.smartphone;" parent="1" vertex="1">
          <mxGeometry x="310" y="620.5" width="35.4" height="59" as="geometry" />
        </mxCell>
        <mxCell id="OhlYMunK3s7UU5Id4ylo-10" value="" style="shape=waypoint;sketch=0;size=6;pointerEvents=1;points=[];fillColor=default;resizable=0;rotatable=0;perimeter=centerPerimeter;snapToPoint=1;verticalAlign=top;strokeColor=#0080F0;labelBackgroundColor=#ffffff;strokeWidth=2;shadow=0;dashed=0;" parent="1" vertex="1">
          <mxGeometry x="500" y="409.5" width="20" height="20" as="geometry" />
        </mxCell>
        <mxCell id="OhlYMunK3s7UU5Id4ylo-12" value="" style="shape=waypoint;sketch=0;size=6;pointerEvents=1;points=[];fillColor=default;resizable=0;rotatable=0;perimeter=centerPerimeter;snapToPoint=1;verticalAlign=top;strokeColor=#0080F0;labelBackgroundColor=#ffffff;strokeWidth=2;shadow=0;dashed=0;" parent="1" vertex="1">
          <mxGeometry x="500" y="413.5" width="20" height="20" as="geometry" />
        </mxCell>
        <mxCell id="OhlYMunK3s7UU5Id4ylo-15" value="Chat Service" style="text;html=1;strokeColor=none;fillColor=none;align=center;verticalAlign=middle;whiteSpace=wrap;rounded=0;" parent="1" vertex="1">
          <mxGeometry x="525" y="360" width="90" height="30" as="geometry" />
        </mxCell>
        <mxCell id="OhlYMunK3s7UU5Id4ylo-27" value="" style="image;html=1;image=img/lib/clip_art/computers/Database_Move_Stack_128x128.png" parent="1" vertex="1">
          <mxGeometry x="786" y="220" width="80" height="80" as="geometry" />
        </mxCell>
        <mxCell id="OhlYMunK3s7UU5Id4ylo-28" value="" style="edgeStyle=orthogonalEdgeStyle;rounded=0;orthogonalLoop=1;jettySize=auto;html=1;exitX=0.5;exitY=0;exitDx=0;exitDy=0;entryX=0;entryY=0.5;entryDx=0;entryDy=0;" parent="1" source="OhlYMunK3s7UU5Id4ylo-15" target="OhlYMunK3s7UU5Id4ylo-27" edge="1">
          <mxGeometry relative="1" as="geometry">
            <mxPoint x="580" y="330" as="sourcePoint" />
            <mxPoint x="702" y="330" as="targetPoint" />
          </mxGeometry>
        </mxCell>
        <mxCell id="OhlYMunK3s7UU5Id4ylo-29" value="Services" style="html=1;whiteSpace=wrap;strokeColor=none;fillColor=#0079D6;labelPosition=center;verticalLabelPosition=middle;verticalAlign=top;align=center;fontSize=12;outlineConnect=0;spacingTop=-6;fontColor=#FFFFFF;sketch=0;shape=mxgraph.sitemap.services;" parent="1" vertex="1">
          <mxGeometry x="1007" y="390" width="120" height="70" as="geometry" />
        </mxCell>
        <mxCell id="OhlYMunK3s7UU5Id4ylo-30" value="Webhook" style="text;html=1;strokeColor=none;fillColor=none;align=center;verticalAlign=middle;whiteSpace=wrap;rounded=0;" parent="1" vertex="1">
          <mxGeometry x="1022" y="358.5" width="90" height="30" as="geometry" />
        </mxCell>
        <mxCell id="OhlYMunK3s7UU5Id4ylo-41" value="" style="edgeStyle=orthogonalEdgeStyle;rounded=0;orthogonalLoop=1;jettySize=auto;html=1;" parent="1" source="OhlYMunK3s7UU5Id4ylo-35" edge="1">
          <mxGeometry relative="1" as="geometry">
            <mxPoint x="1127" y="430.5" as="targetPoint" />
            <Array as="points">
              <mxPoint x="1227" y="350" />
              <mxPoint x="1227" y="431" />
            </Array>
          </mxGeometry>
        </mxCell>
        <mxCell id="OhlYMunK3s7UU5Id4ylo-35" value="" style="shape=image;html=1;verticalAlign=top;verticalLabelPosition=bottom;labelBackgroundColor=#ffffff;imageAspect=0;aspect=fixed;image=https://cdn3.iconfinder.com/data/icons/2018-social-media-logotypes/1000/2018_social_media_popular_app_logo-whatsapp-128.png" parent="1" vertex="1">
          <mxGeometry x="1324.25" y="331" width="45" height="45" as="geometry" />
        </mxCell>
        <mxCell id="OhlYMunK3s7UU5Id4ylo-45" value="" style="edgeStyle=orthogonalEdgeStyle;rounded=0;orthogonalLoop=1;jettySize=auto;html=1;" parent="1" source="OhlYMunK3s7UU5Id4ylo-37" edge="1">
          <mxGeometry relative="1" as="geometry">
            <mxPoint x="1127" y="430.5" as="targetPoint" />
            <Array as="points">
              <mxPoint x="1227" y="510" />
              <mxPoint x="1227" y="431" />
            </Array>
          </mxGeometry>
        </mxCell>
        <mxCell id="OhlYMunK3s7UU5Id4ylo-37" value="" style="shape=image;html=1;verticalAlign=top;verticalLabelPosition=bottom;labelBackgroundColor=#ffffff;imageAspect=0;aspect=fixed;image=https://cdn1.iconfinder.com/data/icons/unicons-line-vol-6/24/telegram-128.png" parent="1" vertex="1">
          <mxGeometry x="1321" y="481" width="55" height="55" as="geometry" />
        </mxCell>
        <mxCell id="OhlYMunK3s7UU5Id4ylo-43" value="" style="edgeStyle=orthogonalEdgeStyle;rounded=0;orthogonalLoop=1;jettySize=auto;html=1;" parent="1" source="OhlYMunK3s7UU5Id4ylo-38" edge="1">
          <mxGeometry relative="1" as="geometry">
            <mxPoint x="1127" y="430.5" as="targetPoint" />
          </mxGeometry>
        </mxCell>
        <mxCell id="OhlYMunK3s7UU5Id4ylo-38" value="" style="shape=image;html=1;verticalAlign=top;verticalLabelPosition=bottom;labelBackgroundColor=#ffffff;imageAspect=0;aspect=fixed;image=https://cdn4.iconfinder.com/data/icons/socialcones/508/Gmail-128.png" parent="1" vertex="1">
          <mxGeometry x="1324.25" y="406.5" width="48" height="48" as="geometry" />
        </mxCell>
        <mxCell id="OhlYMunK3s7UU5Id4ylo-46" value="" style="edgeStyle=orthogonalEdgeStyle;rounded=0;orthogonalLoop=1;jettySize=auto;html=1;exitX=0;exitY=0.5;exitDx=0;exitDy=0;exitPerimeter=0;" parent="1" source="OhlYMunK3s7UU5Id4ylo-29" target="OhlYMunK3s7UU5Id4ylo-1" edge="1">
          <mxGeometry relative="1" as="geometry">
            <mxPoint x="597" y="370" as="sourcePoint" />
            <mxPoint x="778" y="270" as="targetPoint" />
          </mxGeometry>
        </mxCell>
        <mxCell id="OhlYMunK3s7UU5Id4ylo-47" value="" style="edgeStyle=orthogonalEdgeStyle;rounded=0;orthogonalLoop=1;jettySize=auto;html=1;exitX=0;exitY=0.5;exitDx=0;exitDy=0;exitPerimeter=0;entryX=1;entryY=0.5;entryDx=0;entryDy=0;entryPerimeter=0;" parent="1" source="OhlYMunK3s7UU5Id4ylo-1" target="OhlYMunK3s7UU5Id4ylo-3" edge="1">
          <mxGeometry relative="1" as="geometry">
            <mxPoint x="1000" y="435" as="sourcePoint" />
            <mxPoint x="840" y="435" as="targetPoint" />
          </mxGeometry>
        </mxCell>
        <mxCell id="6O2FPIcCJVFnN11v32pc-1" value="Services" style="html=1;whiteSpace=wrap;strokeColor=none;fillColor=#0079D6;labelPosition=center;verticalLabelPosition=middle;verticalAlign=top;align=center;fontSize=12;outlineConnect=0;spacingTop=-6;fontColor=#FFFFFF;sketch=0;shape=mxgraph.sitemap.services;" parent="1" vertex="1">
          <mxGeometry x="510" y="739.5" width="120" height="70" as="geometry" />
        </mxCell>
        <mxCell id="6O2FPIcCJVFnN11v32pc-2" value="OmniChannel" style="text;html=1;strokeColor=none;fillColor=none;align=center;verticalAlign=middle;whiteSpace=wrap;rounded=0;" parent="1" vertex="1">
          <mxGeometry x="530" y="710" width="90" height="30" as="geometry" />
        </mxCell>
        <mxCell id="6O2FPIcCJVFnN11v32pc-3" value="" style="edgeStyle=orthogonalEdgeStyle;rounded=0;orthogonalLoop=1;jettySize=auto;html=1;exitX=0.5;exitY=1;exitDx=0;exitDy=0;exitPerimeter=0;entryX=0.5;entryY=0;entryDx=0;entryDy=0;" parent="1" source="OhlYMunK3s7UU5Id4ylo-1" target="6O2FPIcCJVFnN11v32pc-2" edge="1">
          <mxGeometry relative="1" as="geometry">
            <mxPoint x="1017" y="435" as="sourcePoint" />
            <mxPoint x="875" y="434" as="targetPoint" />
            <Array as="points">
              <mxPoint x="826" y="670" />
              <mxPoint x="575" y="670" />
            </Array>
          </mxGeometry>
        </mxCell>
        <mxCell id="6O2FPIcCJVFnN11v32pc-4" value="Services" style="html=1;whiteSpace=wrap;strokeColor=none;fillColor=#0079D6;labelPosition=center;verticalLabelPosition=middle;verticalAlign=top;align=center;fontSize=12;outlineConnect=0;spacingTop=-6;fontColor=#FFFFFF;sketch=0;shape=mxgraph.sitemap.services;" parent="1" vertex="1">
          <mxGeometry x="1010" y="740" width="120" height="70" as="geometry" />
        </mxCell>
        <mxCell id="6O2FPIcCJVFnN11v32pc-5" value="Machine Learning" style="text;html=1;strokeColor=none;fillColor=none;align=center;verticalAlign=middle;whiteSpace=wrap;rounded=0;" parent="1" vertex="1">
          <mxGeometry x="1015" y="710" width="110" height="30" as="geometry" />
        </mxCell>
        <mxCell id="6O2FPIcCJVFnN11v32pc-6" value="" style="edgeStyle=orthogonalEdgeStyle;rounded=0;orthogonalLoop=1;jettySize=auto;html=1;entryX=0.5;entryY=0;entryDx=0;entryDy=0;exitX=0.5;exitY=1;exitDx=0;exitDy=0;exitPerimeter=0;" parent="1" source="OhlYMunK3s7UU5Id4ylo-1" target="6O2FPIcCJVFnN11v32pc-5" edge="1">
          <mxGeometry relative="1" as="geometry">
            <mxPoint x="760" y="353.23" as="sourcePoint" />
            <mxPoint x="1044" y="679.23" as="targetPoint" />
            <Array as="points">
              <mxPoint x="826" y="670" />
              <mxPoint x="1070" y="670" />
            </Array>
          </mxGeometry>
        </mxCell>
        <mxCell id="6O2FPIcCJVFnN11v32pc-7" value="Services" style="html=1;whiteSpace=wrap;strokeColor=none;fillColor=#0079D6;labelPosition=center;verticalLabelPosition=middle;verticalAlign=top;align=center;fontSize=12;outlineConnect=0;spacingTop=-6;fontColor=#FFFFFF;sketch=0;shape=mxgraph.sitemap.services;" parent="1" vertex="1">
          <mxGeometry x="766" y="739.5" width="120" height="70" as="geometry" />
        </mxCell>
        <mxCell id="6O2FPIcCJVFnN11v32pc-8" value="Function List" style="text;html=1;strokeColor=none;fillColor=none;align=center;verticalAlign=middle;whiteSpace=wrap;rounded=0;" parent="1" vertex="1">
          <mxGeometry x="771" y="710" width="110" height="30" as="geometry" />
        </mxCell>
        <mxCell id="6O2FPIcCJVFnN11v32pc-10" value="" style="edgeStyle=orthogonalEdgeStyle;rounded=0;orthogonalLoop=1;jettySize=auto;html=1;entryX=0.5;entryY=0;entryDx=0;entryDy=0;" parent="1" target="6O2FPIcCJVFnN11v32pc-8" edge="1">
          <mxGeometry relative="1" as="geometry">
            <mxPoint x="826" y="470" as="sourcePoint" />
            <mxPoint x="860" y="740" as="targetPoint" />
            <Array as="points">
              <mxPoint x="826" y="710" />
              <mxPoint x="826" y="710" />
            </Array>
          </mxGeometry>
        </mxCell>
        <mxCell id="6O2FPIcCJVFnN11v32pc-14" value="" style="edgeStyle=orthogonalEdgeStyle;rounded=0;orthogonalLoop=1;jettySize=auto;html=1;entryX=1.039;entryY=0.568;entryDx=0;entryDy=0;entryPerimeter=0;" parent="1" source="OhlYMunK3s7UU5Id4ylo-12" target="OhlYMunK3s7UU5Id4ylo-2" edge="1">
          <mxGeometry relative="1" as="geometry">
            <mxPoint x="797" y="434" as="sourcePoint" />
            <mxPoint x="350" y="420" as="targetPoint" />
          </mxGeometry>
        </mxCell>
        <mxCell id="6O2FPIcCJVFnN11v32pc-15" value="" style="edgeStyle=orthogonalEdgeStyle;rounded=0;orthogonalLoop=1;jettySize=auto;html=1;entryX=1.005;entryY=0.59;entryDx=0;entryDy=0;entryPerimeter=0;" parent="1" source="OhlYMunK3s7UU5Id4ylo-12" target="OhlYMunK3s7UU5Id4ylo-8" edge="1">
          <mxGeometry relative="1" as="geometry">
            <mxPoint x="500" y="430" as="sourcePoint" />
            <mxPoint x="357" y="434" as="targetPoint" />
          </mxGeometry>
        </mxCell>
        <mxCell id="6O2FPIcCJVFnN11v32pc-16" value="" style="edgeStyle=orthogonalEdgeStyle;rounded=0;orthogonalLoop=1;jettySize=auto;html=1;entryX=0.972;entryY=0.59;entryDx=0;entryDy=0;entryPerimeter=0;exitX=0.574;exitY=0.796;exitDx=0;exitDy=0;exitPerimeter=0;" parent="1" source="OhlYMunK3s7UU5Id4ylo-12" target="OhlYMunK3s7UU5Id4ylo-9" edge="1">
          <mxGeometry relative="1" as="geometry">
            <mxPoint x="530" y="444" as="sourcePoint" />
            <mxPoint x="356" y="545" as="targetPoint" />
          </mxGeometry>
        </mxCell>
        <mxCell id="6O2FPIcCJVFnN11v32pc-17" value="" style="endArrow=classic;html=1;rounded=0;" parent="1" target="OhlYMunK3s7UU5Id4ylo-1" edge="1">
          <mxGeometry width="50" height="50" relative="1" as="geometry">
            <mxPoint x="826" y="580" as="sourcePoint" />
            <mxPoint x="830" y="460" as="targetPoint" />
          </mxGeometry>
        </mxCell>
        <mxCell id="6O2FPIcCJVFnN11v32pc-18" value="" style="image;html=1;image=img/lib/clip_art/computers/Database_Move_Stack_128x128.png" parent="1" vertex="1">
          <mxGeometry x="530" y="870" width="80" height="80" as="geometry" />
        </mxCell>
        <mxCell id="6O2FPIcCJVFnN11v32pc-19" value="" style="image;html=1;image=img/lib/clip_art/computers/Database_Move_Stack_128x128.png" parent="1" vertex="1">
          <mxGeometry x="1030" y="870.5" width="80" height="80" as="geometry" />
        </mxCell>
        <mxCell id="6O2FPIcCJVFnN11v32pc-20" value="" style="image;html=1;image=img/lib/clip_art/computers/Database_Move_Stack_128x128.png" parent="1" vertex="1">
          <mxGeometry x="787" y="870" width="80" height="80" as="geometry" />
        </mxCell>
        <mxCell id="6O2FPIcCJVFnN11v32pc-21" value="" style="edgeStyle=orthogonalEdgeStyle;rounded=0;orthogonalLoop=1;jettySize=auto;html=1;exitX=0.5;exitY=1;exitDx=0;exitDy=0;exitPerimeter=0;entryX=0.5;entryY=0;entryDx=0;entryDy=0;" parent="1" source="6O2FPIcCJVFnN11v32pc-1" target="6O2FPIcCJVFnN11v32pc-18" edge="1">
          <mxGeometry relative="1" as="geometry">
            <mxPoint x="807" y="524.5" as="sourcePoint" />
            <mxPoint x="610" y="756.5" as="targetPoint" />
          </mxGeometry>
        </mxCell>
        <mxCell id="6O2FPIcCJVFnN11v32pc-22" value="" style="edgeStyle=orthogonalEdgeStyle;rounded=0;orthogonalLoop=1;jettySize=auto;html=1;exitX=0.5;exitY=1;exitDx=0;exitDy=0;exitPerimeter=0;entryX=0.5;entryY=0;entryDx=0;entryDy=0;" parent="1" source="6O2FPIcCJVFnN11v32pc-7" target="6O2FPIcCJVFnN11v32pc-20" edge="1">
          <mxGeometry relative="1" as="geometry">
            <mxPoint x="966" y="870" as="sourcePoint" />
            <mxPoint x="800" y="870" as="targetPoint" />
          </mxGeometry>
        </mxCell>
        <mxCell id="6O2FPIcCJVFnN11v32pc-23" value="" style="edgeStyle=orthogonalEdgeStyle;rounded=0;orthogonalLoop=1;jettySize=auto;html=1;exitX=0.5;exitY=1;exitDx=0;exitDy=0;exitPerimeter=0;entryX=0.5;entryY=0;entryDx=0;entryDy=0;" parent="1" source="6O2FPIcCJVFnN11v32pc-4" target="6O2FPIcCJVFnN11v32pc-19" edge="1">
          <mxGeometry relative="1" as="geometry">
            <mxPoint x="1213" y="968.67" as="sourcePoint" />
            <mxPoint x="1047" y="968.67" as="targetPoint" />
          </mxGeometry>
        </mxCell>
        <mxCell id="6O2FPIcCJVFnN11v32pc-24" value="" style="rounded=0;whiteSpace=wrap;html=1;fillColor=none;" parent="1" vertex="1">
          <mxGeometry x="470" y="180" width="700" height="810" as="geometry" />
        </mxCell>
        <mxCell id="6O2FPIcCJVFnN11v32pc-25" value="" style="rounded=0;whiteSpace=wrap;html=1;fillColor=none;" parent="1" vertex="1">
          <mxGeometry x="1170" y="180" width="320" height="810" as="geometry" />
        </mxCell>
        <mxCell id="6O2FPIcCJVFnN11v32pc-26" value="" style="rounded=0;whiteSpace=wrap;html=1;fillColor=none;" parent="1" vertex="1">
          <mxGeometry x="150" y="180" width="320" height="810" as="geometry" />
        </mxCell>
        <mxCell id="6O2FPIcCJVFnN11v32pc-27" value="" style="rounded=0;whiteSpace=wrap;html=1;" parent="1" vertex="1">
          <mxGeometry x="150" y="120" width="320" height="60" as="geometry" />
        </mxCell>
        <mxCell id="6O2FPIcCJVFnN11v32pc-28" value="" style="rounded=0;whiteSpace=wrap;html=1;" parent="1" vertex="1">
          <mxGeometry x="470" y="120" width="700" height="60" as="geometry" />
        </mxCell>
        <mxCell id="6O2FPIcCJVFnN11v32pc-29" value="" style="rounded=0;whiteSpace=wrap;html=1;" parent="1" vertex="1">
          <mxGeometry x="1170" y="120" width="320" height="60" as="geometry" />
        </mxCell>
        <mxCell id="6O2FPIcCJVFnN11v32pc-30" value="Client /&amp;nbsp; User" style="text;strokeColor=none;fillColor=none;html=1;fontSize=24;fontStyle=1;verticalAlign=middle;align=center;" parent="1" vertex="1">
          <mxGeometry x="220" y="130" width="180" height="40" as="geometry" />
        </mxCell>
        <mxCell id="6O2FPIcCJVFnN11v32pc-31" value="Main Frames" style="text;strokeColor=none;fillColor=none;html=1;fontSize=24;fontStyle=1;verticalAlign=middle;align=center;" parent="1" vertex="1">
          <mxGeometry x="725" y="130" width="190" height="40" as="geometry" />
        </mxCell>
        <mxCell id="6O2FPIcCJVFnN11v32pc-32" value="External Webhook" style="text;strokeColor=none;fillColor=none;html=1;fontSize=24;fontStyle=1;verticalAlign=middle;align=center;" parent="1" vertex="1">
          <mxGeometry x="1235" y="130" width="190" height="40" as="geometry" />
        </mxCell>
        <mxCell id="6O2FPIcCJVFnN11v32pc-33" value="" style="rounded=0;whiteSpace=wrap;html=1;" parent="1" vertex="1">
          <mxGeometry x="150" y="40" width="1340" height="80" as="geometry" />
        </mxCell>
        <mxCell id="6O2FPIcCJVFnN11v32pc-34" value="&lt;font style=&quot;font-size: 40px;&quot;&gt;ChatBot System&lt;/font&gt;" style="text;strokeColor=none;fillColor=none;html=1;fontSize=24;fontStyle=1;verticalAlign=middle;align=center;" parent="1" vertex="1">
          <mxGeometry x="635" y="55" width="380" height="50" as="geometry" />
        </mxCell>
        <mxCell id="6O2FPIcCJVFnN11v32pc-35" value="&lt;font style=&quot;font-size: 20px;&quot;&gt;1&lt;/font&gt;" style="ellipse;whiteSpace=wrap;html=1;aspect=fixed;" parent="1" vertex="1">
          <mxGeometry x="1180" y="385.5" width="39" height="39" as="geometry" />
        </mxCell>
        <mxCell id="6O2FPIcCJVFnN11v32pc-36" value="&lt;font style=&quot;font-size: 20px;&quot;&gt;2&lt;/font&gt;" style="ellipse;whiteSpace=wrap;html=1;aspect=fixed;" parent="1" vertex="1">
          <mxGeometry x="920" y="381.5" width="39" height="39" as="geometry" />
        </mxCell>
        <mxCell id="6O2FPIcCJVFnN11v32pc-37" value="&lt;font style=&quot;font-size: 20px;&quot;&gt;3&lt;/font&gt;" style="ellipse;whiteSpace=wrap;html=1;aspect=fixed;" parent="1" vertex="1">
          <mxGeometry x="842" y="540" width="39" height="39" as="geometry" />
        </mxCell>
        <mxCell id="6O2FPIcCJVFnN11v32pc-38" value="&lt;font style=&quot;font-size: 20px;&quot;&gt;4&lt;/font&gt;" style="ellipse;whiteSpace=wrap;html=1;aspect=fixed;" parent="1" vertex="1">
          <mxGeometry x="1086" y="671" width="39" height="39" as="geometry" />
        </mxCell>
        <mxCell id="6O2FPIcCJVFnN11v32pc-39" value="&lt;font style=&quot;font-size: 20px;&quot;&gt;5&lt;/font&gt;" style="ellipse;whiteSpace=wrap;html=1;aspect=fixed;" parent="1" vertex="1">
          <mxGeometry x="838" y="677" width="39" height="39" as="geometry" />
        </mxCell>
        <mxCell id="6O2FPIcCJVFnN11v32pc-40" value="&lt;font style=&quot;font-size: 20px;&quot;&gt;6&lt;br&gt;&lt;/font&gt;" style="ellipse;whiteSpace=wrap;html=1;aspect=fixed;" parent="1" vertex="1">
          <mxGeometry x="587" y="677" width="39" height="39" as="geometry" />
        </mxCell>
        <mxCell id="6O2FPIcCJVFnN11v32pc-41" value="&lt;font style=&quot;font-size: 20px;&quot;&gt;7&lt;br&gt;&lt;/font&gt;" style="ellipse;whiteSpace=wrap;html=1;aspect=fixed;" parent="1" vertex="1">
          <mxGeometry x="771" y="540" width="39" height="39" as="geometry" />
        </mxCell>
        <mxCell id="6O2FPIcCJVFnN11v32pc-42" value="&lt;font style=&quot;font-size: 20px;&quot;&gt;8&lt;br&gt;&lt;/font&gt;" style="ellipse;whiteSpace=wrap;html=1;aspect=fixed;" parent="1" vertex="1">
          <mxGeometry x="686" y="376" width="39" height="39" as="geometry" />
        </mxCell>
        <mxCell id="6O2FPIcCJVFnN11v32pc-43" value="&lt;font style=&quot;font-size: 20px;&quot;&gt;9&lt;br&gt;&lt;/font&gt;" style="ellipse;whiteSpace=wrap;html=1;aspect=fixed;" parent="1" vertex="1">
          <mxGeometry x="520" y="300" width="39" height="39" as="geometry" />
        </mxCell>
        <mxCell id="6O2FPIcCJVFnN11v32pc-44" value="&lt;font style=&quot;font-size: 20px;&quot;&gt;10&lt;br&gt;&lt;/font&gt;" style="ellipse;whiteSpace=wrap;html=1;aspect=fixed;" parent="1" vertex="1">
          <mxGeometry x="405" y="374.5" width="39" height="39" as="geometry" />
        </mxCell>
        <mxCell id="0GNVha3fAW3hULClsVbB-1" value="" style="sketch=0;points=[[0,0,0],[0.25,0,0],[0.5,0,0],[0.75,0,0],[1,0,0],[0,1,0],[0.25,1,0],[0.5,1,0],[0.75,1,0],[1,1,0],[0,0.25,0],[0,0.5,0],[0,0.75,0],[1,0.25,0],[1,0.5,0],[1,0.75,0]];outlineConnect=0;fontColor=#232F3E;fillColor=#8C4FFF;strokeColor=#ffffff;dashed=0;verticalLabelPosition=bottom;verticalAlign=top;align=center;html=1;fontSize=12;fontStyle=0;aspect=fixed;shape=mxgraph.aws4.resourceIcon;resIcon=mxgraph.aws4.managed_streaming_for_kafka;" vertex="1" parent="1">
          <mxGeometry x="3295.5" y="366.5" width="101" height="101" as="geometry" />
        </mxCell>
        <mxCell id="0GNVha3fAW3hULClsVbB-2" value="" style="html=1;verticalLabelPosition=bottom;align=center;labelBackgroundColor=#ffffff;verticalAlign=top;strokeWidth=2;strokeColor=#0080F0;shadow=0;dashed=0;shape=mxgraph.ios7.icons.smartphone;" vertex="1" parent="1">
          <mxGeometry x="2269.93" y="382.5" width="35.4" height="59" as="geometry" />
        </mxCell>
        <mxCell id="0GNVha3fAW3hULClsVbB-3" value="Services" style="html=1;whiteSpace=wrap;strokeColor=none;fillColor=#0079D6;labelPosition=center;verticalLabelPosition=middle;verticalAlign=top;align=center;fontSize=12;outlineConnect=0;spacingTop=-6;fontColor=#FFFFFF;sketch=0;shape=mxgraph.sitemap.services;" vertex="1" parent="1">
          <mxGeometry x="2920" y="382.5" width="120" height="70" as="geometry" />
        </mxCell>
        <mxCell id="0GNVha3fAW3hULClsVbB-4" value="" style="shape=waypoint;sketch=0;size=6;pointerEvents=1;points=[];fillColor=default;resizable=0;rotatable=0;perimeter=centerPerimeter;snapToPoint=1;verticalAlign=top;strokeColor=#0080F0;labelBackgroundColor=#ffffff;strokeWidth=2;shadow=0;dashed=0;" vertex="1" parent="1">
          <mxGeometry x="2910" y="402.5" width="20" height="20" as="geometry" />
        </mxCell>
        <mxCell id="0GNVha3fAW3hULClsVbB-5" value="" style="html=1;verticalLabelPosition=bottom;align=center;labelBackgroundColor=#ffffff;verticalAlign=top;strokeWidth=2;strokeColor=#0080F0;shadow=0;dashed=0;shape=mxgraph.ios7.icons.smartphone;" vertex="1" parent="1">
          <mxGeometry x="2269.93" y="492" width="35.4" height="59" as="geometry" />
        </mxCell>
        <mxCell id="0GNVha3fAW3hULClsVbB-6" value="" style="html=1;verticalLabelPosition=bottom;align=center;labelBackgroundColor=#ffffff;verticalAlign=top;strokeWidth=2;strokeColor=#0080F0;shadow=0;dashed=0;shape=mxgraph.ios7.icons.smartphone;" vertex="1" parent="1">
          <mxGeometry x="2269.93" y="612" width="35.4" height="59" as="geometry" />
        </mxCell>
        <mxCell id="0GNVha3fAW3hULClsVbB-7" value="" style="shape=waypoint;sketch=0;size=6;pointerEvents=1;points=[];fillColor=default;resizable=0;rotatable=0;perimeter=centerPerimeter;snapToPoint=1;verticalAlign=top;strokeColor=#0080F0;labelBackgroundColor=#ffffff;strokeWidth=2;shadow=0;dashed=0;" vertex="1" parent="1">
          <mxGeometry x="2910" y="402.5" width="20" height="20" as="geometry" />
        </mxCell>
        <mxCell id="0GNVha3fAW3hULClsVbB-8" value="" style="shape=waypoint;sketch=0;size=6;pointerEvents=1;points=[];fillColor=default;resizable=0;rotatable=0;perimeter=centerPerimeter;snapToPoint=1;verticalAlign=top;strokeColor=#0080F0;labelBackgroundColor=#ffffff;strokeWidth=2;shadow=0;dashed=0;" vertex="1" parent="1">
          <mxGeometry x="2910" y="406.5" width="20" height="20" as="geometry" />
        </mxCell>
        <mxCell id="0GNVha3fAW3hULClsVbB-9" value="Chat Service" style="text;html=1;strokeColor=none;fillColor=none;align=center;verticalAlign=middle;whiteSpace=wrap;rounded=0;" vertex="1" parent="1">
          <mxGeometry x="2935" y="353" width="90" height="30" as="geometry" />
        </mxCell>
        <mxCell id="0GNVha3fAW3hULClsVbB-10" value="" style="image;html=1;image=img/lib/clip_art/computers/Database_Move_Stack_128x128.png" vertex="1" parent="1">
          <mxGeometry x="3306" y="213.5" width="80" height="80" as="geometry" />
        </mxCell>
        <mxCell id="0GNVha3fAW3hULClsVbB-11" value="" style="edgeStyle=orthogonalEdgeStyle;rounded=0;orthogonalLoop=1;jettySize=auto;html=1;exitX=0.5;exitY=0;exitDx=0;exitDy=0;entryX=0;entryY=0.5;entryDx=0;entryDy=0;" edge="1" parent="1" source="0GNVha3fAW3hULClsVbB-9" target="0GNVha3fAW3hULClsVbB-10">
          <mxGeometry relative="1" as="geometry">
            <mxPoint x="3100" y="323.5" as="sourcePoint" />
            <mxPoint x="3222" y="323.5" as="targetPoint" />
          </mxGeometry>
        </mxCell>
        <mxCell id="0GNVha3fAW3hULClsVbB-12" value="Services" style="html=1;whiteSpace=wrap;strokeColor=none;fillColor=#0079D6;labelPosition=center;verticalLabelPosition=middle;verticalAlign=top;align=center;fontSize=12;outlineConnect=0;spacingTop=-6;fontColor=#FFFFFF;sketch=0;shape=mxgraph.sitemap.services;" vertex="1" parent="1">
          <mxGeometry x="4390" y="382.5" width="120" height="70" as="geometry" />
        </mxCell>
        <mxCell id="0GNVha3fAW3hULClsVbB-13" value="Webhook" style="text;html=1;strokeColor=none;fillColor=none;align=center;verticalAlign=middle;whiteSpace=wrap;rounded=0;" vertex="1" parent="1">
          <mxGeometry x="4405" y="351" width="90" height="30" as="geometry" />
        </mxCell>
        <mxCell id="0GNVha3fAW3hULClsVbB-14" value="" style="edgeStyle=orthogonalEdgeStyle;rounded=0;orthogonalLoop=1;jettySize=auto;html=1;" edge="1" parent="1" source="0GNVha3fAW3hULClsVbB-15">
          <mxGeometry relative="1" as="geometry">
            <mxPoint x="4510" y="423" as="targetPoint" />
            <Array as="points">
              <mxPoint x="4610" y="342.5" />
              <mxPoint x="4610" y="423.5" />
            </Array>
          </mxGeometry>
        </mxCell>
        <mxCell id="0GNVha3fAW3hULClsVbB-15" value="" style="shape=image;html=1;verticalAlign=top;verticalLabelPosition=bottom;labelBackgroundColor=#ffffff;imageAspect=0;aspect=fixed;image=https://cdn3.iconfinder.com/data/icons/2018-social-media-logotypes/1000/2018_social_media_popular_app_logo-whatsapp-128.png" vertex="1" parent="1">
          <mxGeometry x="4707.25" y="323.5" width="45" height="45" as="geometry" />
        </mxCell>
        <mxCell id="0GNVha3fAW3hULClsVbB-16" value="" style="edgeStyle=orthogonalEdgeStyle;rounded=0;orthogonalLoop=1;jettySize=auto;html=1;" edge="1" parent="1" source="0GNVha3fAW3hULClsVbB-17">
          <mxGeometry relative="1" as="geometry">
            <mxPoint x="4510" y="423" as="targetPoint" />
            <Array as="points">
              <mxPoint x="4610" y="502.5" />
              <mxPoint x="4610" y="423.5" />
            </Array>
          </mxGeometry>
        </mxCell>
        <mxCell id="0GNVha3fAW3hULClsVbB-17" value="" style="shape=image;html=1;verticalAlign=top;verticalLabelPosition=bottom;labelBackgroundColor=#ffffff;imageAspect=0;aspect=fixed;image=https://cdn1.iconfinder.com/data/icons/unicons-line-vol-6/24/telegram-128.png" vertex="1" parent="1">
          <mxGeometry x="4704" y="473.5" width="55" height="55" as="geometry" />
        </mxCell>
        <mxCell id="0GNVha3fAW3hULClsVbB-18" value="" style="edgeStyle=orthogonalEdgeStyle;rounded=0;orthogonalLoop=1;jettySize=auto;html=1;" edge="1" parent="1" source="0GNVha3fAW3hULClsVbB-19">
          <mxGeometry relative="1" as="geometry">
            <mxPoint x="4510" y="423" as="targetPoint" />
          </mxGeometry>
        </mxCell>
        <mxCell id="0GNVha3fAW3hULClsVbB-19" value="" style="shape=image;html=1;verticalAlign=top;verticalLabelPosition=bottom;labelBackgroundColor=#ffffff;imageAspect=0;aspect=fixed;image=https://cdn4.iconfinder.com/data/icons/socialcones/508/Gmail-128.png" vertex="1" parent="1">
          <mxGeometry x="4707.25" y="399" width="48" height="48" as="geometry" />
        </mxCell>
        <mxCell id="0GNVha3fAW3hULClsVbB-20" value="" style="edgeStyle=orthogonalEdgeStyle;rounded=0;orthogonalLoop=1;jettySize=auto;html=1;exitX=0;exitY=0.5;exitDx=0;exitDy=0;exitPerimeter=0;" edge="1" parent="1" source="0GNVha3fAW3hULClsVbB-12" target="0GNVha3fAW3hULClsVbB-1">
          <mxGeometry relative="1" as="geometry">
            <mxPoint x="3117" y="363.5" as="sourcePoint" />
            <mxPoint x="3298" y="263.5" as="targetPoint" />
          </mxGeometry>
        </mxCell>
        <mxCell id="0GNVha3fAW3hULClsVbB-21" value="" style="edgeStyle=orthogonalEdgeStyle;rounded=0;orthogonalLoop=1;jettySize=auto;html=1;exitX=0;exitY=0.5;exitDx=0;exitDy=0;exitPerimeter=0;entryX=1;entryY=0.5;entryDx=0;entryDy=0;entryPerimeter=0;" edge="1" parent="1" source="0GNVha3fAW3hULClsVbB-1" target="0GNVha3fAW3hULClsVbB-3">
          <mxGeometry relative="1" as="geometry">
            <mxPoint x="3520" y="428.5" as="sourcePoint" />
            <mxPoint x="3360" y="428.5" as="targetPoint" />
          </mxGeometry>
        </mxCell>
        <mxCell id="0GNVha3fAW3hULClsVbB-22" value="Services" style="html=1;whiteSpace=wrap;strokeColor=none;fillColor=#0079D6;labelPosition=center;verticalLabelPosition=middle;verticalAlign=top;align=center;fontSize=12;outlineConnect=0;spacingTop=-6;fontColor=#FFFFFF;sketch=0;shape=mxgraph.sitemap.services;" vertex="1" parent="1">
          <mxGeometry x="3030" y="733" width="120" height="70" as="geometry" />
        </mxCell>
        <mxCell id="0GNVha3fAW3hULClsVbB-23" value="OmniChannel" style="text;html=1;strokeColor=none;fillColor=none;align=center;verticalAlign=middle;whiteSpace=wrap;rounded=0;" vertex="1" parent="1">
          <mxGeometry x="3045" y="703.5" width="90" height="30" as="geometry" />
        </mxCell>
        <mxCell id="0GNVha3fAW3hULClsVbB-24" value="" style="edgeStyle=orthogonalEdgeStyle;rounded=0;orthogonalLoop=1;jettySize=auto;html=1;exitX=0.25;exitY=1;exitDx=0;exitDy=0;exitPerimeter=0;entryX=0.5;entryY=0;entryDx=0;entryDy=0;" edge="1" parent="1" source="0GNVha3fAW3hULClsVbB-1" target="0GNVha3fAW3hULClsVbB-23">
          <mxGeometry relative="1" as="geometry">
            <mxPoint x="3537" y="428.5" as="sourcePoint" />
            <mxPoint x="3395" y="427.5" as="targetPoint" />
            <Array as="points">
              <mxPoint x="3321" y="663" />
              <mxPoint x="3090" y="663" />
            </Array>
          </mxGeometry>
        </mxCell>
        <mxCell id="0GNVha3fAW3hULClsVbB-25" value="Services" style="html=1;whiteSpace=wrap;strokeColor=none;fillColor=#0079D6;labelPosition=center;verticalLabelPosition=middle;verticalAlign=top;align=center;fontSize=12;outlineConnect=0;spacingTop=-6;fontColor=#FFFFFF;sketch=0;shape=mxgraph.sitemap.services;" vertex="1" parent="1">
          <mxGeometry x="3530" y="733.5" width="120" height="70" as="geometry" />
        </mxCell>
        <mxCell id="0GNVha3fAW3hULClsVbB-26" value="Machine Learning" style="text;html=1;strokeColor=none;fillColor=none;align=center;verticalAlign=middle;whiteSpace=wrap;rounded=0;" vertex="1" parent="1">
          <mxGeometry x="3535" y="703.5" width="110" height="30" as="geometry" />
        </mxCell>
        <mxCell id="0GNVha3fAW3hULClsVbB-27" value="" style="edgeStyle=orthogonalEdgeStyle;rounded=0;orthogonalLoop=1;jettySize=auto;html=1;entryX=0.5;entryY=0;entryDx=0;entryDy=0;exitX=0.5;exitY=1;exitDx=0;exitDy=0;exitPerimeter=0;" edge="1" parent="1" source="0GNVha3fAW3hULClsVbB-1" target="0GNVha3fAW3hULClsVbB-26">
          <mxGeometry relative="1" as="geometry">
            <mxPoint x="3280" y="346.73" as="sourcePoint" />
            <mxPoint x="3564" y="672.73" as="targetPoint" />
            <Array as="points">
              <mxPoint x="3346" y="663.5" />
              <mxPoint x="3590" y="663.5" />
            </Array>
          </mxGeometry>
        </mxCell>
        <mxCell id="0GNVha3fAW3hULClsVbB-28" value="Services" style="html=1;whiteSpace=wrap;strokeColor=none;fillColor=#0079D6;labelPosition=center;verticalLabelPosition=middle;verticalAlign=top;align=center;fontSize=12;outlineConnect=0;spacingTop=-6;fontColor=#FFFFFF;sketch=0;shape=mxgraph.sitemap.services;" vertex="1" parent="1">
          <mxGeometry x="3286" y="733" width="120" height="70" as="geometry" />
        </mxCell>
        <mxCell id="0GNVha3fAW3hULClsVbB-29" value="Function List" style="text;html=1;strokeColor=none;fillColor=none;align=center;verticalAlign=middle;whiteSpace=wrap;rounded=0;" vertex="1" parent="1">
          <mxGeometry x="3291" y="703.5" width="110" height="30" as="geometry" />
        </mxCell>
        <mxCell id="0GNVha3fAW3hULClsVbB-30" value="" style="edgeStyle=orthogonalEdgeStyle;rounded=0;orthogonalLoop=1;jettySize=auto;html=1;entryX=0.5;entryY=0;entryDx=0;entryDy=0;startArrow=classic;startFill=1;exitX=0.5;exitY=1;exitDx=0;exitDy=0;exitPerimeter=0;" edge="1" parent="1" target="0GNVha3fAW3hULClsVbB-29" source="0GNVha3fAW3hULClsVbB-1">
          <mxGeometry relative="1" as="geometry">
            <mxPoint x="3346" y="463.5" as="sourcePoint" />
            <mxPoint x="3380" y="733.5" as="targetPoint" />
            <Array as="points" />
          </mxGeometry>
        </mxCell>
        <mxCell id="0GNVha3fAW3hULClsVbB-31" value="" style="edgeStyle=orthogonalEdgeStyle;rounded=0;orthogonalLoop=1;jettySize=auto;html=1;entryX=1.039;entryY=0.568;entryDx=0;entryDy=0;entryPerimeter=0;" edge="1" parent="1">
          <mxGeometry relative="1" as="geometry">
            <mxPoint x="2380" y="420" as="sourcePoint" />
            <mxPoint x="2306.7106" y="416.01200000000006" as="targetPoint" />
            <Array as="points">
              <mxPoint x="2380" y="416" />
            </Array>
          </mxGeometry>
        </mxCell>
        <mxCell id="0GNVha3fAW3hULClsVbB-32" value="" style="edgeStyle=orthogonalEdgeStyle;rounded=0;orthogonalLoop=1;jettySize=auto;html=1;entryX=1.005;entryY=0.59;entryDx=0;entryDy=0;entryPerimeter=0;" edge="1" parent="1" target="0GNVha3fAW3hULClsVbB-5">
          <mxGeometry relative="1" as="geometry">
            <mxPoint x="2380" y="420" as="sourcePoint" />
            <mxPoint x="2316.93" y="425.5" as="targetPoint" />
            <Array as="points">
              <mxPoint x="2380" y="527" />
            </Array>
          </mxGeometry>
        </mxCell>
        <mxCell id="0GNVha3fAW3hULClsVbB-33" value="" style="edgeStyle=orthogonalEdgeStyle;rounded=0;orthogonalLoop=1;jettySize=auto;html=1;entryX=0.972;entryY=0.59;entryDx=0;entryDy=0;entryPerimeter=0;" edge="1" parent="1" source="0GNVha3fAW3hULClsVbB-8">
          <mxGeometry relative="1" as="geometry">
            <mxPoint x="2880" y="420" as="sourcePoint" />
            <mxPoint x="2304.3387999999995" y="647.81" as="targetPoint" />
            <Array as="points">
              <mxPoint x="2870" y="416" />
              <mxPoint x="2380" y="416" />
              <mxPoint x="2380" y="648" />
            </Array>
          </mxGeometry>
        </mxCell>
        <mxCell id="0GNVha3fAW3hULClsVbB-35" value="" style="image;html=1;image=img/lib/clip_art/computers/Database_Move_Stack_128x128.png" vertex="1" parent="1">
          <mxGeometry x="3050" y="863.5" width="80" height="80" as="geometry" />
        </mxCell>
        <mxCell id="0GNVha3fAW3hULClsVbB-36" value="" style="image;html=1;image=img/lib/clip_art/computers/Database_Move_Stack_128x128.png" vertex="1" parent="1">
          <mxGeometry x="3550" y="864" width="80" height="80" as="geometry" />
        </mxCell>
        <mxCell id="0GNVha3fAW3hULClsVbB-37" value="" style="image;html=1;image=img/lib/clip_art/computers/Database_Move_Stack_128x128.png" vertex="1" parent="1">
          <mxGeometry x="3307" y="863.5" width="80" height="80" as="geometry" />
        </mxCell>
        <mxCell id="0GNVha3fAW3hULClsVbB-38" value="" style="edgeStyle=orthogonalEdgeStyle;rounded=0;orthogonalLoop=1;jettySize=auto;html=1;exitX=0.5;exitY=1;exitDx=0;exitDy=0;exitPerimeter=0;entryX=0.5;entryY=0;entryDx=0;entryDy=0;" edge="1" parent="1" source="0GNVha3fAW3hULClsVbB-22" target="0GNVha3fAW3hULClsVbB-35">
          <mxGeometry relative="1" as="geometry">
            <mxPoint x="3327" y="518" as="sourcePoint" />
            <mxPoint x="3130" y="750" as="targetPoint" />
          </mxGeometry>
        </mxCell>
        <mxCell id="0GNVha3fAW3hULClsVbB-39" value="" style="edgeStyle=orthogonalEdgeStyle;rounded=0;orthogonalLoop=1;jettySize=auto;html=1;exitX=0.5;exitY=1;exitDx=0;exitDy=0;exitPerimeter=0;entryX=0.5;entryY=0;entryDx=0;entryDy=0;" edge="1" parent="1" source="0GNVha3fAW3hULClsVbB-28" target="0GNVha3fAW3hULClsVbB-37">
          <mxGeometry relative="1" as="geometry">
            <mxPoint x="3486" y="863.5" as="sourcePoint" />
            <mxPoint x="3320" y="863.5" as="targetPoint" />
          </mxGeometry>
        </mxCell>
        <mxCell id="0GNVha3fAW3hULClsVbB-40" value="" style="edgeStyle=orthogonalEdgeStyle;rounded=0;orthogonalLoop=1;jettySize=auto;html=1;exitX=0.5;exitY=1;exitDx=0;exitDy=0;exitPerimeter=0;entryX=0.5;entryY=0;entryDx=0;entryDy=0;" edge="1" parent="1" source="0GNVha3fAW3hULClsVbB-25" target="0GNVha3fAW3hULClsVbB-36">
          <mxGeometry relative="1" as="geometry">
            <mxPoint x="3733" y="962.1700000000001" as="sourcePoint" />
            <mxPoint x="3567" y="962.1700000000001" as="targetPoint" />
          </mxGeometry>
        </mxCell>
        <mxCell id="0GNVha3fAW3hULClsVbB-52" value="&lt;font style=&quot;font-size: 20px;&quot;&gt;1&lt;/font&gt;" style="ellipse;whiteSpace=wrap;html=1;aspect=fixed;" vertex="1" parent="1">
          <mxGeometry x="4563" y="378" width="39" height="39" as="geometry" />
        </mxCell>
        <mxCell id="0GNVha3fAW3hULClsVbB-53" value="&lt;font style=&quot;font-size: 20px;&quot;&gt;2&lt;/font&gt;" style="ellipse;whiteSpace=wrap;html=1;aspect=fixed;" vertex="1" parent="1">
          <mxGeometry x="3440" y="375" width="39" height="39" as="geometry" />
        </mxCell>
        <mxCell id="0GNVha3fAW3hULClsVbB-54" value="&lt;font style=&quot;font-size: 20px;&quot;&gt;3&lt;/font&gt;" style="ellipse;whiteSpace=wrap;html=1;aspect=fixed;" vertex="1" parent="1">
          <mxGeometry x="4116" y="523" width="39" height="39" as="geometry" />
        </mxCell>
        <mxCell id="0GNVha3fAW3hULClsVbB-55" value="&lt;font style=&quot;font-size: 20px;&quot;&gt;4&lt;/font&gt;" style="ellipse;whiteSpace=wrap;html=1;aspect=fixed;" vertex="1" parent="1">
          <mxGeometry x="4065" y="523" width="39" height="39" as="geometry" />
        </mxCell>
        <mxCell id="0GNVha3fAW3hULClsVbB-56" value="&lt;font style=&quot;font-size: 20px;&quot;&gt;5&lt;/font&gt;" style="ellipse;whiteSpace=wrap;html=1;aspect=fixed;" vertex="1" parent="1">
          <mxGeometry x="3570.5" y="614" width="39" height="39" as="geometry" />
        </mxCell>
        <mxCell id="0GNVha3fAW3hULClsVbB-57" value="&lt;font style=&quot;font-size: 20px;&quot;&gt;6&lt;br&gt;&lt;/font&gt;" style="ellipse;whiteSpace=wrap;html=1;aspect=fixed;" vertex="1" parent="1">
          <mxGeometry x="3352" y="612.5" width="39" height="39" as="geometry" />
        </mxCell>
        <mxCell id="0GNVha3fAW3hULClsVbB-58" value="&lt;font style=&quot;font-size: 20px;&quot;&gt;7&lt;br&gt;&lt;/font&gt;" style="ellipse;whiteSpace=wrap;html=1;aspect=fixed;" vertex="1" parent="1">
          <mxGeometry x="3075.5" y="614" width="39" height="39" as="geometry" />
        </mxCell>
        <mxCell id="0GNVha3fAW3hULClsVbB-59" value="&lt;font style=&quot;font-size: 20px;&quot;&gt;8&lt;br&gt;&lt;/font&gt;" style="ellipse;whiteSpace=wrap;html=1;aspect=fixed;" vertex="1" parent="1">
          <mxGeometry x="3206" y="369.5" width="39" height="39" as="geometry" />
        </mxCell>
        <mxCell id="0GNVha3fAW3hULClsVbB-60" value="&lt;font style=&quot;font-size: 20px;&quot;&gt;9&lt;br&gt;&lt;/font&gt;" style="ellipse;whiteSpace=wrap;html=1;aspect=fixed;" vertex="1" parent="1">
          <mxGeometry x="2930" y="293" width="39" height="39" as="geometry" />
        </mxCell>
        <mxCell id="0GNVha3fAW3hULClsVbB-61" value="&lt;font style=&quot;font-size: 20px;&quot;&gt;10&lt;br&gt;&lt;/font&gt;" style="ellipse;whiteSpace=wrap;html=1;aspect=fixed;" vertex="1" parent="1">
          <mxGeometry x="2364.93" y="366" width="39" height="39" as="geometry" />
        </mxCell>
        <mxCell id="0GNVha3fAW3hULClsVbB-62" value="Services" style="html=1;whiteSpace=wrap;strokeColor=none;fillColor=#0079D6;labelPosition=center;verticalLabelPosition=middle;verticalAlign=top;align=center;fontSize=12;outlineConnect=0;spacingTop=-6;fontColor=#FFFFFF;sketch=0;shape=mxgraph.sitemap.services;" vertex="1" parent="1">
          <mxGeometry x="4050" y="625.5" width="120" height="70" as="geometry" />
        </mxCell>
        <mxCell id="0GNVha3fAW3hULClsVbB-64" value="Entrance" style="text;html=1;strokeColor=none;fillColor=none;align=center;verticalAlign=middle;whiteSpace=wrap;rounded=0;" vertex="1" parent="1">
          <mxGeometry x="4065" y="595.5" width="90" height="30" as="geometry" />
        </mxCell>
        <mxCell id="0GNVha3fAW3hULClsVbB-65" value="" style="edgeStyle=orthogonalEdgeStyle;rounded=0;orthogonalLoop=1;jettySize=auto;html=1;exitX=0.75;exitY=1;exitDx=0;exitDy=0;exitPerimeter=0;entryX=0.5;entryY=0;entryDx=0;entryDy=0;strokeColor=default;startArrow=classic;startFill=1;" edge="1" parent="1">
          <mxGeometry relative="1" as="geometry">
            <mxPoint x="3370.25" y="467.5" as="sourcePoint" />
            <mxPoint x="4109" y="595.5" as="targetPoint" />
            <Array as="points">
              <mxPoint x="3370" y="510" />
              <mxPoint x="4109" y="510" />
            </Array>
          </mxGeometry>
        </mxCell>
        <mxCell id="0GNVha3fAW3hULClsVbB-68" value="" style="image;html=1;image=img/lib/clip_art/computers/Database_Move_Stack_128x128.png" vertex="1" parent="1">
          <mxGeometry x="4070" y="790" width="80" height="80" as="geometry" />
        </mxCell>
        <mxCell id="0GNVha3fAW3hULClsVbB-69" value="" style="edgeStyle=orthogonalEdgeStyle;rounded=0;orthogonalLoop=1;jettySize=auto;html=1;exitX=0.5;exitY=1;exitDx=0;exitDy=0;exitPerimeter=0;entryX=0.5;entryY=0;entryDx=0;entryDy=0;" edge="1" parent="1" source="0GNVha3fAW3hULClsVbB-62" target="0GNVha3fAW3hULClsVbB-68">
          <mxGeometry relative="1" as="geometry">
            <mxPoint x="3870" y="784" as="sourcePoint" />
            <mxPoint x="3870" y="844" as="targetPoint" />
          </mxGeometry>
        </mxCell>
        <mxCell id="0GNVha3fAW3hULClsVbB-70" value="" style="verticalLabelPosition=bottom;html=1;verticalAlign=top;align=center;strokeColor=none;fillColor=#00BEF2;shape=mxgraph.azure.laptop;pointerEvents=1;" vertex="1" parent="1">
          <mxGeometry x="2640" y="620.5" width="116.67" height="70" as="geometry" />
        </mxCell>
        <mxCell id="0GNVha3fAW3hULClsVbB-71" value="" style="verticalLabelPosition=bottom;html=1;verticalAlign=top;align=center;strokeColor=none;fillColor=#00BEF2;shape=mxgraph.azure.laptop;pointerEvents=1;" vertex="1" parent="1">
          <mxGeometry x="2639" y="737.5" width="116.67" height="70" as="geometry" />
        </mxCell>
        <mxCell id="0GNVha3fAW3hULClsVbB-72" value="" style="verticalLabelPosition=bottom;html=1;verticalAlign=top;align=center;strokeColor=none;fillColor=#00BEF2;shape=mxgraph.azure.laptop;pointerEvents=1;" vertex="1" parent="1">
          <mxGeometry x="2640" y="860.5" width="116.67" height="70" as="geometry" />
        </mxCell>
        <mxCell id="0GNVha3fAW3hULClsVbB-73" value="" style="edgeStyle=orthogonalEdgeStyle;rounded=0;orthogonalLoop=1;jettySize=auto;html=1;exitX=0;exitY=0.5;exitDx=0;exitDy=0;exitPerimeter=0;" edge="1" parent="1" source="0GNVha3fAW3hULClsVbB-22">
          <mxGeometry relative="1" as="geometry">
            <mxPoint x="3100" y="813" as="sourcePoint" />
            <mxPoint x="2760" y="675" as="targetPoint" />
            <Array as="points">
              <mxPoint x="2880" y="768" />
              <mxPoint x="2880" y="675" />
            </Array>
          </mxGeometry>
        </mxCell>
        <mxCell id="0GNVha3fAW3hULClsVbB-74" value="" style="edgeStyle=orthogonalEdgeStyle;rounded=0;orthogonalLoop=1;jettySize=auto;html=1;exitX=0;exitY=0.5;exitDx=0;exitDy=0;exitPerimeter=0;startArrow=classic;startFill=1;entryX=1.003;entryY=0.436;entryDx=0;entryDy=0;entryPerimeter=0;" edge="1" parent="1" source="0GNVha3fAW3hULClsVbB-22" target="0GNVha3fAW3hULClsVbB-71">
          <mxGeometry relative="1" as="geometry">
            <mxPoint x="3040" y="778" as="sourcePoint" />
            <mxPoint x="2760" y="770" as="targetPoint" />
            <Array as="points" />
          </mxGeometry>
        </mxCell>
        <mxCell id="0GNVha3fAW3hULClsVbB-75" value="" style="edgeStyle=orthogonalEdgeStyle;rounded=0;orthogonalLoop=1;jettySize=auto;html=1;" edge="1" parent="1">
          <mxGeometry relative="1" as="geometry">
            <mxPoint x="2880" y="750.5" as="sourcePoint" />
            <mxPoint x="2760" y="900.5" as="targetPoint" />
            <Array as="points">
              <mxPoint x="2880" y="758.5" />
              <mxPoint x="2880" y="900.5" />
            </Array>
          </mxGeometry>
        </mxCell>
        <mxCell id="0GNVha3fAW3hULClsVbB-76" value="KAFKA Topic" style="swimlane;fontStyle=0;childLayout=stackLayout;horizontal=1;startSize=30;horizontalStack=0;resizeParent=1;resizeParentMax=0;resizeLast=0;collapsible=1;marginBottom=0;whiteSpace=wrap;html=1;" vertex="1" parent="1">
          <mxGeometry x="3670" y="-37" width="270" height="390" as="geometry">
            <mxRectangle x="3680" y="170" width="70" height="30" as="alternateBounds" />
          </mxGeometry>
        </mxCell>
        <mxCell id="0GNVha3fAW3hULClsVbB-77" value="webhook_whatsapp_text" style="text;strokeColor=none;fillColor=none;align=left;verticalAlign=middle;spacingLeft=4;spacingRight=4;overflow=hidden;points=[[0,0.5],[1,0.5]];portConstraint=eastwest;rotatable=0;whiteSpace=wrap;html=1;" vertex="1" parent="0GNVha3fAW3hULClsVbB-76">
          <mxGeometry y="30" width="270" height="30" as="geometry" />
        </mxCell>
        <mxCell id="0GNVha3fAW3hULClsVbB-78" value="webhook_whatsapp_carousel" style="text;strokeColor=none;fillColor=none;align=left;verticalAlign=middle;spacingLeft=4;spacingRight=4;overflow=hidden;points=[[0,0.5],[1,0.5]];portConstraint=eastwest;rotatable=0;whiteSpace=wrap;html=1;" vertex="1" parent="0GNVha3fAW3hULClsVbB-76">
          <mxGeometry y="60" width="270" height="30" as="geometry" />
        </mxCell>
        <mxCell id="0GNVha3fAW3hULClsVbB-79" value="webhook_line_text" style="text;strokeColor=none;fillColor=none;align=left;verticalAlign=middle;spacingLeft=4;spacingRight=4;overflow=hidden;points=[[0,0.5],[1,0.5]];portConstraint=eastwest;rotatable=0;whiteSpace=wrap;html=1;" vertex="1" parent="0GNVha3fAW3hULClsVbB-76">
          <mxGeometry y="90" width="270" height="30" as="geometry" />
        </mxCell>
        <mxCell id="0GNVha3fAW3hULClsVbB-86" value="...." style="text;strokeColor=none;fillColor=none;align=left;verticalAlign=middle;spacingLeft=4;spacingRight=4;overflow=hidden;points=[[0,0.5],[1,0.5]];portConstraint=eastwest;rotatable=0;whiteSpace=wrap;html=1;" vertex="1" parent="0GNVha3fAW3hULClsVbB-76">
          <mxGeometry y="120" width="270" height="30" as="geometry" />
        </mxCell>
        <mxCell id="0GNVha3fAW3hULClsVbB-85" value="webhook_&amp;lt;channel&amp;gt;_&amp;lt;type&amp;gt;" style="text;strokeColor=none;fillColor=none;align=left;verticalAlign=middle;spacingLeft=4;spacingRight=4;overflow=hidden;points=[[0,0.5],[1,0.5]];portConstraint=eastwest;rotatable=0;whiteSpace=wrap;html=1;" vertex="1" parent="0GNVha3fAW3hULClsVbB-76">
          <mxGeometry y="150" width="270" height="30" as="geometry" />
        </mxCell>
        <mxCell id="0GNVha3fAW3hULClsVbB-88" value="webhook_whatsapp_text_failure" style="text;strokeColor=none;fillColor=none;align=left;verticalAlign=middle;spacingLeft=4;spacingRight=4;overflow=hidden;points=[[0,0.5],[1,0.5]];portConstraint=eastwest;rotatable=0;whiteSpace=wrap;html=1;" vertex="1" parent="0GNVha3fAW3hULClsVbB-76">
          <mxGeometry y="180" width="270" height="30" as="geometry" />
        </mxCell>
        <mxCell id="0GNVha3fAW3hULClsVbB-89" value="....." style="text;strokeColor=none;fillColor=none;align=left;verticalAlign=middle;spacingLeft=4;spacingRight=4;overflow=hidden;points=[[0,0.5],[1,0.5]];portConstraint=eastwest;rotatable=0;whiteSpace=wrap;html=1;" vertex="1" parent="0GNVha3fAW3hULClsVbB-76">
          <mxGeometry y="210" width="270" height="30" as="geometry" />
        </mxCell>
        <mxCell id="0GNVha3fAW3hULClsVbB-90" value="webhook_&amp;lt;channel_&amp;lt;type&amp;gt;_failure" style="text;strokeColor=none;fillColor=none;align=left;verticalAlign=middle;spacingLeft=4;spacingRight=4;overflow=hidden;points=[[0,0.5],[1,0.5]];portConstraint=eastwest;rotatable=0;whiteSpace=wrap;html=1;" vertex="1" parent="0GNVha3fAW3hULClsVbB-76">
          <mxGeometry y="240" width="270" height="30" as="geometry" />
        </mxCell>
        <mxCell id="0GNVha3fAW3hULClsVbB-95" value="&amp;nbsp;" style="text;strokeColor=none;fillColor=none;align=left;verticalAlign=middle;spacingLeft=4;spacingRight=4;overflow=hidden;points=[[0,0.5],[1,0.5]];portConstraint=eastwest;rotatable=0;whiteSpace=wrap;html=1;" vertex="1" parent="0GNVha3fAW3hULClsVbB-76">
          <mxGeometry y="270" width="270" height="30" as="geometry" />
        </mxCell>
        <mxCell id="0GNVha3fAW3hULClsVbB-91" value="machinelearning_whatsapp_text" style="text;strokeColor=none;fillColor=none;align=left;verticalAlign=middle;spacingLeft=4;spacingRight=4;overflow=hidden;points=[[0,0.5],[1,0.5]];portConstraint=eastwest;rotatable=0;whiteSpace=wrap;html=1;" vertex="1" parent="0GNVha3fAW3hULClsVbB-76">
          <mxGeometry y="300" width="270" height="30" as="geometry" />
        </mxCell>
        <mxCell id="0GNVha3fAW3hULClsVbB-92" value="functionlist_whatsapp_text" style="text;strokeColor=none;fillColor=none;align=left;verticalAlign=middle;spacingLeft=4;spacingRight=4;overflow=hidden;points=[[0,0.5],[1,0.5]];portConstraint=eastwest;rotatable=0;whiteSpace=wrap;html=1;" vertex="1" parent="0GNVha3fAW3hULClsVbB-76">
          <mxGeometry y="330" width="270" height="30" as="geometry" />
        </mxCell>
        <mxCell id="0GNVha3fAW3hULClsVbB-93" value="omnichannel_whatsapp_text" style="text;strokeColor=none;fillColor=none;align=left;verticalAlign=middle;spacingLeft=4;spacingRight=4;overflow=hidden;points=[[0,0.5],[1,0.5]];portConstraint=eastwest;rotatable=0;whiteSpace=wrap;html=1;" vertex="1" parent="0GNVha3fAW3hULClsVbB-76">
          <mxGeometry y="360" width="270" height="30" as="geometry" />
        </mxCell>
        <mxCell id="0GNVha3fAW3hULClsVbB-96" value="4. payload" style="swimlane;fontStyle=0;childLayout=stackLayout;horizontal=1;startSize=30;horizontalStack=0;resizeParent=1;resizeParentMax=0;resizeLast=0;collapsible=1;marginBottom=0;whiteSpace=wrap;html=1;" vertex="1" parent="1">
          <mxGeometry x="4200" y="600.5" width="140" height="180" as="geometry" />
        </mxCell>
        <mxCell id="0GNVha3fAW3hULClsVbB-97" value="app_id&amp;nbsp;&amp;lt;integer&amp;gt;" style="text;strokeColor=none;fillColor=none;align=left;verticalAlign=middle;spacingLeft=4;spacingRight=4;overflow=hidden;points=[[0,0.5],[1,0.5]];portConstraint=eastwest;rotatable=0;whiteSpace=wrap;html=1;" vertex="1" parent="0GNVha3fAW3hULClsVbB-96">
          <mxGeometry y="30" width="140" height="30" as="geometry" />
        </mxCell>
        <mxCell id="0GNVha3fAW3hULClsVbB-98" value="integration_id&amp;nbsp;&amp;lt;integer&amp;gt;" style="text;strokeColor=none;fillColor=none;align=left;verticalAlign=middle;spacingLeft=4;spacingRight=4;overflow=hidden;points=[[0,0.5],[1,0.5]];portConstraint=eastwest;rotatable=0;whiteSpace=wrap;html=1;" vertex="1" parent="0GNVha3fAW3hULClsVbB-96">
          <mxGeometry y="60" width="140" height="30" as="geometry" />
        </mxCell>
        <mxCell id="0GNVha3fAW3hULClsVbB-99" value="channel_id &amp;lt;integer&amp;gt;" style="text;strokeColor=none;fillColor=none;align=left;verticalAlign=middle;spacingLeft=4;spacingRight=4;overflow=hidden;points=[[0,0.5],[1,0.5]];portConstraint=eastwest;rotatable=0;whiteSpace=wrap;html=1;" vertex="1" parent="0GNVha3fAW3hULClsVbB-96">
          <mxGeometry y="90" width="140" height="30" as="geometry" />
        </mxCell>
        <mxCell id="0GNVha3fAW3hULClsVbB-100" value="type &amp;lt;enum&amp;gt;" style="text;strokeColor=none;fillColor=none;align=left;verticalAlign=middle;spacingLeft=4;spacingRight=4;overflow=hidden;points=[[0,0.5],[1,0.5]];portConstraint=eastwest;rotatable=0;whiteSpace=wrap;html=1;" vertex="1" parent="0GNVha3fAW3hULClsVbB-96">
          <mxGeometry y="120" width="140" height="30" as="geometry" />
        </mxCell>
        <mxCell id="0GNVha3fAW3hULClsVbB-101" value="data &amp;lt;json&amp;gt;" style="text;strokeColor=none;fillColor=none;align=left;verticalAlign=middle;spacingLeft=4;spacingRight=4;overflow=hidden;points=[[0,0.5],[1,0.5]];portConstraint=eastwest;rotatable=0;whiteSpace=wrap;html=1;" vertex="1" parent="0GNVha3fAW3hULClsVbB-96">
          <mxGeometry y="150" width="140" height="30" as="geometry" />
        </mxCell>
        <mxCell id="0GNVha3fAW3hULClsVbB-102" value="2, produce new chat to webhook_&amp;lt;channel&amp;gt;_&amp;lt;type&amp;gt;" style="text;html=1;strokeColor=none;fillColor=none;align=center;verticalAlign=middle;whiteSpace=wrap;rounded=0;" vertex="1" parent="1">
          <mxGeometry x="3700" y="384" width="290" height="30" as="geometry" />
        </mxCell>
        <mxCell id="0GNVha3fAW3hULClsVbB-103" value="3. consume chat from webhook_&amp;lt;channel&amp;gt;_&amp;lt;type&amp;gt;" style="text;html=1;strokeColor=none;fillColor=none;align=center;verticalAlign=middle;whiteSpace=wrap;rounded=0;" vertex="1" parent="1">
          <mxGeometry x="3560" y="481" width="290" height="30" as="geometry" />
        </mxCell>
        <mxCell id="0GNVha3fAW3hULClsVbB-104" value="4. produce chat to chat_&amp;lt;channel&amp;gt;_&amp;lt;type&amp;gt; and produce to ML or FL if any" style="text;html=1;strokeColor=none;fillColor=none;align=center;verticalAlign=middle;whiteSpace=wrap;rounded=0;" vertex="1" parent="1">
          <mxGeometry x="3510" y="515" width="420" height="30" as="geometry" />
        </mxCell>
        <mxCell id="0GNVha3fAW3hULClsVbB-105" value="5. consume from ML_&amp;lt;channel&amp;gt;_&amp;lt;type&amp;gt; and produce to chat_&amp;lt;channel&amp;gt;_&amp;lt;type&amp;gt; and also produce to sendchat_&amp;lt;channel&amp;gt;_&amp;lt;type&amp;gt;" style="text;html=1;strokeColor=none;fillColor=none;align=left;verticalAlign=middle;whiteSpace=wrap;rounded=0;" vertex="1" parent="1">
          <mxGeometry x="3599" y="662" width="265" height="39.5" as="geometry" />
        </mxCell>
        <mxCell id="0GNVha3fAW3hULClsVbB-106" value="6. same like number 5" style="text;html=1;strokeColor=none;fillColor=none;align=left;verticalAlign=middle;whiteSpace=wrap;rounded=0;" vertex="1" parent="1">
          <mxGeometry x="3396.5" y="631.5" width="123.5" height="28.5" as="geometry" />
        </mxCell>
        <mxCell id="0GNVha3fAW3hULClsVbB-107" value="7. consume from chat_&amp;lt;channel&amp;gt;_&amp;lt;type&amp;gt; and produce to sendchat_&amp;lt;channel&amp;gt;_&amp;lt;type&amp;gt; if agent reply the chat" style="text;html=1;strokeColor=none;fillColor=none;align=left;verticalAlign=middle;whiteSpace=wrap;rounded=0;" vertex="1" parent="1">
          <mxGeometry x="2800" y="621.75" width="265" height="39.5" as="geometry" />
        </mxCell>
        <mxCell id="0GNVha3fAW3hULClsVbB-108" value="8. consume sendchat_&amp;lt;channel&amp;gt;_&amp;lt;type&amp;gt;" style="text;html=1;strokeColor=none;fillColor=none;align=left;verticalAlign=middle;whiteSpace=wrap;rounded=0;" vertex="1" parent="1">
          <mxGeometry x="3058" y="420.5" width="225" height="20" as="geometry" />
        </mxCell>
      </root>
    </mxGraphModel>
  </diagram>
</mxfile>
